<?xml version="1.0" encoding="utf-8"?>

<!-- Uploaded to: SVG Repo, www.svgrepo.com, Generator: SVG Repo Mixer Tools -->
<svg height="800px" width="800px" version="1.1" id="Layer_1" xmlns="http://www.w3.org/2000/svg" xmlns:xlink="http://www.w3.org/1999/xlink" 
	 viewBox="0 0 100 100" enable-background="new 0 0 100 100" xml:space="preserve">
<g>
	<path fill="#3792CF" d="M50,78.743c-16.503,0-29.881-3.014-29.881-6.732v11.617c0,3.718,13.378,6.732,29.881,6.732
		s29.881-3.014,29.881-6.732V72.011C79.881,75.729,66.503,78.743,50,78.743z"/>
	<path fill="#6AC9CC" d="M55.914,65.411c-1.809,2.076-3.776,4.185-5.914,6.322c-2.138-2.137-4.105-4.245-5.914-6.322
		c-13.67,0.618-23.967,3.338-23.967,6.6c0,3.718,13.378,6.732,29.881,6.732s29.881-3.014,29.881-6.732
		C79.881,68.749,69.583,66.03,55.914,65.411z"/>
	<g>
		<path fill="#FEE36F" d="M62.471,42.449c-0.957,0-1.882-0.358-2.592-1.007l-8.61-7.887c-1.563-1.431-1.669-3.858-0.238-5.421
			c1.431-1.562,3.859-1.669,5.421-0.238l5.718,5.237l13.106-14.955c1.397-1.593,3.821-1.754,5.415-0.357
			c1.594,1.396,1.754,3.821,0.357,5.414L65.356,41.141c-0.68,0.776-1.645,1.246-2.675,1.302
			C62.61,42.447,62.541,42.449,62.471,42.449z"/>
	</g>
	<path fill="#F68C43" d="M65.356,41.141c-0.68,0.776-1.645,1.246-2.675,1.302c-0.07,0.004-0.14,0.006-0.21,0.006
		c-0.957,0-1.882-0.358-2.592-1.007l-7.762-7.11c-0.678,0.171-1.385,0.271-2.117,0.271c-4.779,0-8.652-3.869-8.652-8.643
		c0-4.771,3.873-8.643,8.652-8.643c4.779,0,8.644,3.873,8.644,8.643c0,1.182-0.238,2.307-0.667,3.333l4.193,3.841l9.946-11.349
		C69.188,12.356,60.396,5.508,50,5.508c-12.791,0-23.155,10.366-23.155,23.153c0,11.287,6.392,26.318,23.155,43.072
		C64.92,56.82,71.619,43.276,72.913,32.519L65.356,41.141z"/>
	<path fill="#136296" d="M80.386,83.628V82.8h14.108c0.279,0,0.506-0.226,0.506-0.506s-0.226-0.506-0.506-0.506H80.386v-9.778
		c0-4.026-11.593-6.416-23.414-7.053C68.763,51.181,72.48,40.06,73.394,32.737l8.034-9.167c0.765-0.872,1.144-1.99,1.067-3.148
		c-0.076-1.157-0.599-2.216-1.471-2.98c-0.872-0.765-1.987-1.143-3.148-1.067c-1.157,0.076-2.216,0.599-2.98,1.471l-2.578,2.942
		C68.986,11.309,60.128,5.002,50,5.002c-13.046,0-23.66,10.613-23.66,23.659c0,10.936,5.87,23.6,16.697,36.296
		c-11.824,0.637-23.423,3.026-23.423,7.053v9.778H5.506C5.226,81.789,5,82.015,5,82.294S5.226,82.8,5.506,82.8h14.108v0.828
		c0,4.701,15.656,7.238,30.386,7.238S80.386,88.329,80.386,83.628z M75.656,18.512c1.211-1.382,3.32-1.52,4.701-0.31
		c0.669,0.586,1.07,1.398,1.129,2.286c0.059,0.888-0.232,1.745-0.819,2.415L64.976,40.808c-0.587,0.669-1.433,1.082-2.321,1.13
		c-0.903,0.05-1.773-0.264-2.434-0.869l-8.61-7.887c-1.354-1.241-1.447-3.352-0.206-4.706c0.656-0.716,1.556-1.08,2.458-1.08
		c0.804,0,1.61,0.289,2.249,0.873l5.718,5.237c0.1,0.092,0.234,0.139,0.369,0.132c0.136-0.007,0.263-0.069,0.353-0.172
		L75.656,18.512z M51.034,34.025c-0.349,0.047-0.695,0.072-1.034,0.072c-4.492,0-8.146-3.65-8.146-8.137
		c0-4.487,3.654-8.138,8.146-8.138c4.488,0,8.139,3.651,8.139,8.138c0,0.839-0.129,1.659-0.379,2.449l-0.966-0.885
		c-1.765-1.618-4.518-1.496-6.136,0.269c-0.784,0.855-1.187,1.964-1.136,3.123c0.051,1.159,0.55,2.228,1.405,3.012L51.034,34.025z
		 M27.351,28.661c0-12.488,10.16-22.647,22.649-22.647c9.887,0,18.511,6.278,21.548,15.652L62.13,32.412l-3.555-3.257
		c0.381-1.022,0.575-2.095,0.575-3.195c0-5.045-4.104-9.149-9.15-9.149c-5.049,0-9.157,4.104-9.157,9.149
		c0,5.044,4.108,9.149,9.157,9.149c0.645,0,1.307-0.075,1.973-0.223l7.565,6.929c0.103,0.094,0.211,0.183,0.321,0.266
		c0.054,0.041,0.112,0.077,0.168,0.115c0.057,0.039,0.113,0.08,0.172,0.116c0.069,0.042,0.14,0.08,0.211,0.118
		c0.049,0.027,0.097,0.055,0.148,0.079c0.073,0.036,0.149,0.067,0.224,0.099c0.052,0.022,0.103,0.045,0.156,0.065
		c0.072,0.027,0.144,0.05,0.217,0.073c0.061,0.019,0.121,0.039,0.183,0.055c0.066,0.018,0.132,0.032,0.199,0.047
		c0.073,0.016,0.146,0.031,0.22,0.043c0.058,0.01,0.117,0.017,0.176,0.025c0.084,0.01,0.168,0.019,0.253,0.024
		c0.054,0.004,0.109,0.006,0.163,0.008c0.041,0.001,0.081,0.006,0.122,0.006c0.079,0,0.158-0.002,0.238-0.007
		c1.159-0.064,2.263-0.601,3.028-1.474l6.432-7.339c-1.234,7.309-5.285,17.929-16.626,30.936c-0.003,0.003-0.007,0.004-0.01,0.007
		c-1.723,1.978-3.583,3.974-5.532,5.938c-0.47-0.474-0.935-0.949-1.394-1.426c-0.216-0.225-0.427-0.449-0.64-0.674
		c-0.229-0.241-0.459-0.481-0.684-0.722c-0.348-0.373-0.691-0.746-1.031-1.12c-0.071-0.078-0.144-0.156-0.215-0.234
		C33.944,53.485,27.351,40.083,27.351,28.661z M43.866,65.927c0.543,0.62,1.102,1.242,1.67,1.864
		c0.114,0.125,0.231,0.25,0.345,0.375c0.312,0.339,0.623,0.678,0.942,1.016c0.253,0.269,0.511,0.538,0.769,0.806
		c0.202,0.211,0.4,0.422,0.604,0.632c0.475,0.49,0.957,0.98,1.446,1.469c0.099,0.099,0.228,0.148,0.357,0.148
		s0.259-0.049,0.357-0.148c0.512-0.512,1.019-1.027,1.519-1.543c1.522-1.57,2.939-3.11,4.261-4.62
		c14.551,0.687,23.238,3.624,23.238,6.083c0,2.945-12.064,6.226-29.375,6.226s-29.375-3.281-29.375-6.226
		C20.625,69.551,29.313,66.614,43.866,65.927z M50,89.855c-17.311,0-29.375-3.281-29.375-6.226v-9.64
		c0.013,0.012,0.029,0.024,0.043,0.036c0.043,0.039,0.092,0.078,0.138,0.117c0.091,0.078,0.185,0.155,0.286,0.231
		c0.057,0.043,0.118,0.086,0.178,0.128c0.1,0.071,0.205,0.141,0.313,0.21c0.067,0.042,0.134,0.085,0.203,0.126
		c0.116,0.07,0.238,0.138,0.362,0.207c0.07,0.038,0.138,0.077,0.21,0.115c0.15,0.078,0.307,0.155,0.467,0.231
		c0.054,0.026,0.105,0.052,0.16,0.077c0.218,0.1,0.445,0.198,0.681,0.294c0.063,0.026,0.131,0.05,0.195,0.076
		c0.178,0.07,0.358,0.14,0.545,0.208c0.095,0.035,0.194,0.068,0.291,0.102c0.165,0.058,0.332,0.115,0.503,0.171
		c0.108,0.035,0.217,0.07,0.327,0.105c0.172,0.054,0.348,0.107,0.526,0.16c0.112,0.033,0.223,0.066,0.337,0.098
		c0.193,0.055,0.39,0.108,0.589,0.161c0.105,0.028,0.208,0.056,0.314,0.084c0.268,0.069,0.541,0.136,0.82,0.202
		c0.042,0.01,0.081,0.02,0.123,0.03c0.319,0.075,0.646,0.147,0.977,0.218c0.111,0.024,0.225,0.046,0.337,0.07
		c0.227,0.047,0.455,0.094,0.688,0.139c0.135,0.026,0.272,0.052,0.409,0.078c0.217,0.041,0.436,0.081,0.657,0.12
		c0.144,0.025,0.288,0.051,0.434,0.076c0.225,0.038,0.452,0.076,0.681,0.112c0.143,0.023,0.284,0.046,0.428,0.068
		c0.255,0.039,0.513,0.077,0.772,0.115c0.12,0.017,0.239,0.036,0.361,0.053c0.379,0.053,0.761,0.105,1.148,0.154
		c0.075,0.01,0.151,0.018,0.226,0.027c0.317,0.039,0.635,0.078,0.957,0.115c0.143,0.016,0.288,0.032,0.432,0.048
		c0.258,0.028,0.517,0.056,0.778,0.083c0.16,0.016,0.321,0.032,0.482,0.048c0.252,0.025,0.504,0.048,0.758,0.071
		c0.162,0.015,0.325,0.029,0.488,0.043c0.265,0.023,0.532,0.044,0.799,0.066c0.151,0.012,0.302,0.024,0.454,0.036
		c0.322,0.024,0.646,0.047,0.97,0.068c0.097,0.006,0.193,0.014,0.29,0.02c0.421,0.027,0.844,0.052,1.269,0.075
		c0.114,0.006,0.229,0.011,0.344,0.017c0.312,0.016,0.624,0.031,0.938,0.045c0.157,0.007,0.314,0.013,0.471,0.019
		c0.275,0.011,0.55,0.022,0.825,0.031c0.168,0.006,0.335,0.011,0.503,0.016c0.27,0.008,0.541,0.015,0.811,0.022
		c0.165,0.004,0.329,0.008,0.493,0.011c0.291,0.006,0.582,0.01,0.873,0.014c0.14,0.002,0.28,0.004,0.42,0.006
		c0.43,0.004,0.86,0.007,1.289,0.007s0.859-0.003,1.289-0.007c0.14-0.001,0.28-0.004,0.42-0.006
		c0.291-0.004,0.582-0.008,0.873-0.014c0.165-0.003,0.329-0.007,0.493-0.011c0.27-0.006,0.541-0.014,0.811-0.022
		c0.168-0.005,0.335-0.01,0.503-0.016c0.275-0.009,0.55-0.02,0.825-0.031c0.157-0.006,0.314-0.012,0.471-0.019
		c0.313-0.014,0.626-0.029,0.938-0.045c0.114-0.006,0.229-0.011,0.344-0.017c0.425-0.023,0.848-0.048,1.269-0.075
		c0.097-0.006,0.193-0.014,0.29-0.02c0.325-0.022,0.648-0.044,0.97-0.068c0.152-0.011,0.303-0.024,0.454-0.036
		c0.267-0.021,0.534-0.043,0.799-0.066c0.163-0.014,0.326-0.029,0.488-0.043c0.254-0.023,0.506-0.047,0.758-0.071
		c0.161-0.016,0.322-0.031,0.482-0.048c0.261-0.027,0.52-0.055,0.778-0.083c0.144-0.016,0.289-0.031,0.432-0.048
		c0.322-0.037,0.64-0.075,0.957-0.115c0.075-0.009,0.152-0.018,0.226-0.027c0.387-0.049,0.769-0.101,1.148-0.154
		c0.121-0.017,0.24-0.035,0.361-0.053c0.259-0.038,0.517-0.076,0.772-0.115c0.144-0.022,0.286-0.045,0.428-0.068
		c0.229-0.037,0.456-0.074,0.681-0.112c0.146-0.025,0.29-0.05,0.434-0.076c0.221-0.039,0.44-0.079,0.657-0.12
		c0.137-0.026,0.274-0.051,0.409-0.078c0.233-0.045,0.461-0.092,0.688-0.139c0.112-0.023,0.226-0.046,0.337-0.07
		c0.332-0.071,0.658-0.143,0.977-0.218c0.042-0.01,0.081-0.02,0.123-0.03c0.278-0.066,0.552-0.133,0.82-0.202
		c0.106-0.027,0.209-0.056,0.314-0.084c0.199-0.053,0.397-0.107,0.589-0.161c0.114-0.032,0.226-0.065,0.337-0.098
		c0.178-0.053,0.354-0.106,0.526-0.16c0.11-0.035,0.22-0.069,0.327-0.105c0.171-0.056,0.338-0.113,0.503-0.171
		c0.097-0.034,0.196-0.068,0.291-0.102c0.187-0.068,0.367-0.138,0.545-0.208c0.064-0.025,0.132-0.05,0.195-0.076
		c0.236-0.096,0.463-0.194,0.681-0.294c0.055-0.025,0.106-0.052,0.16-0.077c0.16-0.076,0.318-0.153,0.467-0.231
		c0.072-0.038,0.14-0.076,0.21-0.115c0.124-0.068,0.246-0.137,0.362-0.207c0.07-0.042,0.137-0.084,0.203-0.126
		c0.109-0.069,0.213-0.139,0.313-0.21c0.06-0.043,0.121-0.085,0.178-0.128c0.101-0.076,0.195-0.153,0.286-0.231
		c0.046-0.039,0.094-0.077,0.138-0.117c0.013-0.012,0.03-0.024,0.043-0.036v9.64C79.375,86.573,67.311,89.855,50,89.855z"/>
	<path fill="#136296" d="M82.156,85.981c0-0.279-0.226-0.506-0.506-0.506h-1.77c-0.279,0-0.506,0.226-0.506,0.506
		s0.226,0.506,0.506,0.506h1.77C81.93,86.487,82.156,86.26,82.156,85.981z"/>
	<path fill="#136296" d="M89.539,85.981c0-0.279-0.226-0.506-0.506-0.506h-3.691c-0.279,0-0.506,0.226-0.506,0.506
		s0.226,0.506,0.506,0.506h3.691C89.313,86.487,89.539,86.26,89.539,85.981z"/>
	<path fill="#136296" d="M94.494,85.475h-1.77c-0.279,0-0.506,0.226-0.506,0.506s0.226,0.506,0.506,0.506h1.77
		c0.279,0,0.506-0.226,0.506-0.506S94.774,85.475,94.494,85.475z"/>
	<path fill="#136296" d="M5.506,86.487h1.77c0.279,0,0.506-0.226,0.506-0.506s-0.226-0.506-0.506-0.506h-1.77
		C5.226,85.475,5,85.702,5,85.981S5.226,86.487,5.506,86.487z"/>
	<path fill="#136296" d="M14.658,85.475h-3.691c-0.279,0-0.506,0.226-0.506,0.506s0.226,0.506,0.506,0.506h3.691
		c0.279,0,0.506-0.226,0.506-0.506S14.937,85.475,14.658,85.475z"/>
	<path fill="#136296" d="M20.119,86.487c0.279,0,0.506-0.226,0.506-0.506s-0.226-0.506-0.506-0.506h-1.77
		c-0.279,0-0.506,0.226-0.506,0.506s0.226,0.506,0.506,0.506H20.119z"/>
	<path fill="#136296" d="M76.376,89.855h-2.528c-0.279,0-0.506,0.226-0.506,0.506s0.226,0.506,0.506,0.506h2.528
		c0.279,0,0.506-0.226,0.506-0.506S76.656,89.855,76.376,89.855z"/>
	<path fill="#136296" d="M81.573,90.866h5.197c0.279,0,0.506-0.226,0.506-0.506s-0.226-0.506-0.506-0.506h-5.197
		c-0.279,0-0.506,0.226-0.506,0.506S81.294,90.866,81.573,90.866z"/>
	<path fill="#136296" d="M94.494,89.855h-2.528c-0.279,0-0.506,0.226-0.506,0.506s0.226,0.506,0.506,0.506h2.528
		c0.279,0,0.506-0.226,0.506-0.506S94.774,89.855,94.494,89.855z"/>
	<path fill="#136296" d="M8.034,89.855H5.506C5.226,89.855,5,90.081,5,90.36s0.226,0.506,0.506,0.506h2.528
		c0.279,0,0.506-0.226,0.506-0.506S8.313,89.855,8.034,89.855z"/>
	<path fill="#136296" d="M12.725,90.36c0,0.279,0.226,0.506,0.506,0.506h5.197c0.279,0,0.506-0.226,0.506-0.506
		s-0.226-0.506-0.506-0.506H13.23C12.951,89.855,12.725,90.081,12.725,90.36z"/>
	<path fill="#136296" d="M26.657,90.36c0-0.279-0.226-0.506-0.506-0.506h-2.528c-0.279,0-0.506,0.226-0.506,0.506
		s0.226,0.506,0.506,0.506h2.528C26.431,90.866,26.657,90.639,26.657,90.36z"/>
	<path fill="#136296" d="M7.275,93.986h-1.77C5.226,93.986,5,94.213,5,94.492s0.226,0.506,0.506,0.506h1.77
		c0.279,0,0.506-0.226,0.506-0.506S7.555,93.986,7.275,93.986z"/>
	<path fill="#136296" d="M20.947,93.986h-3.418c-0.279,0-0.506,0.226-0.506,0.506s0.226,0.506,0.506,0.506h3.418
		c0.279,0,0.506-0.226,0.506-0.506S21.226,93.986,20.947,93.986z"/>
	<path fill="#136296" d="M14.111,93.986h-3.418c-0.279,0-0.506,0.226-0.506,0.506s0.226,0.506,0.506,0.506h3.418
		c0.279,0,0.506-0.226,0.506-0.506S14.39,93.986,14.111,93.986z"/>
	<path fill="#136296" d="M27.783,93.986h-3.418c-0.279,0-0.506,0.226-0.506,0.506s0.226,0.506,0.506,0.506h3.418
		c0.279,0,0.506-0.226,0.506-0.506S28.062,93.986,27.783,93.986z"/>
	<path fill="#136296" d="M61.963,93.986h-3.418c-0.279,0-0.506,0.226-0.506,0.506s0.226,0.506,0.506,0.506h3.418
		c0.279,0,0.506-0.226,0.506-0.506S62.242,93.986,61.963,93.986z"/>
	<path fill="#136296" d="M34.619,93.986h-3.418c-0.279,0-0.506,0.226-0.506,0.506s0.226,0.506,0.506,0.506h3.418
		c0.279,0,0.506-0.226,0.506-0.506S34.898,93.986,34.619,93.986z"/>
	<path fill="#136296" d="M89.307,93.986h-3.418c-0.279,0-0.506,0.226-0.506,0.506s0.226,0.506,0.506,0.506h3.418
		c0.279,0,0.506-0.226,0.506-0.506S89.586,93.986,89.307,93.986z"/>
	<path fill="#136296" d="M75.635,93.986h-3.418c-0.279,0-0.506,0.226-0.506,0.506s0.226,0.506,0.506,0.506h3.418
		c0.279,0,0.506-0.226,0.506-0.506S75.914,93.986,75.635,93.986z"/>
	<path fill="#136296" d="M68.799,93.986h-3.418c-0.279,0-0.506,0.226-0.506,0.506s0.226,0.506,0.506,0.506h3.418
		c0.279,0,0.506-0.226,0.506-0.506S69.078,93.986,68.799,93.986z"/>
	<path fill="#136296" d="M48.291,93.986h-3.418c-0.279,0-0.506,0.226-0.506,0.506s0.226,0.506,0.506,0.506h3.418
		c0.279,0,0.506-0.226,0.506-0.506S48.57,93.986,48.291,93.986z"/>
	<path fill="#136296" d="M41.455,93.986h-3.418c-0.279,0-0.506,0.226-0.506,0.506s0.226,0.506,0.506,0.506h3.418
		c0.279,0,0.506-0.226,0.506-0.506S41.734,93.986,41.455,93.986z"/>
	<path fill="#136296" d="M82.471,93.986h-3.418c-0.279,0-0.506,0.226-0.506,0.506s0.226,0.506,0.506,0.506h3.418
		c0.279,0,0.506-0.226,0.506-0.506S82.75,93.986,82.471,93.986z"/>
	<path fill="#136296" d="M55.127,93.986h-3.418c-0.279,0-0.506,0.226-0.506,0.506s0.226,0.506,0.506,0.506h3.418
		c0.279,0,0.506-0.226,0.506-0.506S55.406,93.986,55.127,93.986z"/>
	<path fill="#136296" d="M94.494,93.986h-1.77c-0.279,0-0.506,0.226-0.506,0.506s0.226,0.506,0.506,0.506h1.77
		c0.279,0,0.506-0.226,0.506-0.506S94.774,93.986,94.494,93.986z"/>
</g>
</svg>